# ProBuilder 4.5.0
# https://unity3d.com/unity/features/worldbuilding/probuilder
# 10/09/2021 20:02:26

mtllib ./Axe.mtl
o Axe

g Axe
v 0 0 0
v -0.08164395 0 0
v 4.698666E-08 0.6062867 -5.434538E-07
v -0.08164395 0.6062867 -5.434538E-07
v -0.08164395 0 -0.08164395
v -0.08164395 0.5473675 -0.08164395
v 0 0 -0.08164395
v 0 0.5473675 -0.08164395
v 1.718433E-08 0.8210512 -5.434538E-07
v -0.08164395 0.8210512 -5.434538E-07
v 0 0.8210512 -0.08164395
v -0.08164395 0.8210512 -0.08164395
v -0.04113938 0.6062869 0.1952071
v -0.0500905 0.6062869 0.1952071
v -0.04113938 0.8210512 0.1952071
v -0.0500905 0.8210512 0.1952071

vt 0 0
vt -1 0
vt 5.755069E-07 1.107641
vt -0.9999999 1.107641
vt -1 0.9999999
vt 1 0
vt 1 1
vt 0 1
vt 0.9999999 -6.656388E-06
vt 0 -1
vt 1 -1
vt -1 -1
vt -0.5038876 1.107642
vt -0.6135237 1.107642
vt -0.5038876 1.5
vt -0.6135237 1.5
vt 1 1.5
vt 6.656388E-06 1.5
vt -1 1
vt -1 1.5
vt -0.9999999 -6.435488E-06
vt -0.5038876 2.390956
vt -0.6135237 2.390956
vt -2.443475 1.5
vt -2.443475 1.107642
vt -0.1595759 1.107641
vt -0.1595759 1.5
vt 2.26242 1.107642
vt 2.26242 1.5
vt 0.6135237 2.390955
vt 0.5038876 2.390955

vn 0 3.289414E-06 0.08164395
vn -0.08164395 2.945507E-08 0
vn 0 0 -0.08164395
vn 0.08164395 0 0
vn 0 0.5473675 0
vn 0 -0.5473675 0
vn 0.07988912 4.982934E-07 0.01683638
vn -0.08059783 0 0.01302787

usemtl Prototype_512x512_Grey2
f 15/15/1 16/16/1 14/14/1 13/13/1
f 13/22/6 14/23/6 4/21/6 3/1/6
f 15/24/7 13/25/7 3/3/7 9/18/7
f 14/28/8 16/29/8 10/27/8 4/26/8
f 16/30/5 15/31/5 9/1/5 10/9/5

usemtl Prototype_512x512_Brown
f 3/3/1 4/4/1 2/2/1 1/1/1
f 4/3/2 6/5/2 5/2/2 2/1/2
f 6/7/3 8/8/3 7/1/3 5/6/3
f 8/7/4 3/3/4 1/1/4 7/6/4
f 11/10/5 12/11/5 10/9/5 9/1/5
f 1/1/6 2/2/6 5/12/6 7/10/6
f 11/17/4 9/18/4 3/3/4 8/7/4
f 10/18/2 12/20/2 6/19/2 4/3/2
f 12/17/3 11/18/3 8/8/3 6/7/3

