# ProBuilder 4.5.0
# https://unity3d.com/unity/features/worldbuilding/probuilder
# 10/09/2021 20:07:16

mtllib ./Pickaxe.mtl
o Pickaxe

g Pickaxe
v 0 0 0
v -0.08115389 0 0
v 3.433891E-08 0.733214 -2.30229E-07
v -0.08115383 0.733214 -2.30229E-07
v -0.08115389 0 -0.08115389
v -0.08115383 0.733214 -0.08115409
v 0 0 -0.08115389
v 3.433891E-08 0.733214 -0.08115409
v 3.433891E-08 0.8177917 -2.30229E-07
v -0.08115383 0.8177917 -2.30229E-07
v 3.433891E-08 0.8177917 -0.08115409
v -0.08115383 0.8177917 -0.08115409
v -0.0330288 0.7676362 0.2332552
v -0.04812499 0.7676362 0.2332552
v -0.0330288 0.7833695 0.2332552
v -0.04812499 0.7833695 0.2332552
v -0.05171534 0.7638946 -0.3005784
v -0.02943846 0.7638946 -0.3005784
v -0.05171534 0.7871112 -0.3005784
v -0.02943846 0.7871112 -0.3005784

vt 0 0
vt -1 0
vt 4.231333E-07 9.03486
vt -0.9999993 9.03486
vt -1.000003 9.03486
vt 1 2.770818E-07
vt 0.9999993 9.03486
vt 1.000003 9.03486
vt 0.9999993 -2.836943E-06
vt -4.231333E-07 -1.000003
vt 0.9999993 -1.000003
vt -1 -1
vt -0.4069898 9.45902
vt -0.5930091 9.45902
vt -0.4069898 9.652889
vt -0.5930091 9.652889
vt 1.000003 10.07705
vt 2.836943E-06 10.07705
vt -1.000003 10.07705
vt 0.6372502 9.412913
vt 0.3627486 9.412913
vt 0.6372502 9.698996
vt 0.3627486 9.698996
vt 4.231333E-07 1.319015
vt -0.9999993 1.319015
vt -0.4069898 4.224379
vt -0.5930091 4.224379
vt -2.902904 9.652889
vt -2.902904 9.45902
vt -0.1402036 9.03486
vt -0.1402036 10.07705
vt 2.762704 9.45902
vt 2.762704 9.652889
vt 0.9999993 -1.471168
vt -4.231333E-07 -1.471168
vt 0.5930091 1.434196
vt 0.4069898 1.434196
vt -0.9999993 -2.241478
vt 4.231333E-07 -2.241478
vt -0.6372502 -4.971584
vt -0.3627486 -4.971584
vt -0.8581514 10.07705
vt -0.8581514 9.03486
vt -3.586181 9.698996
vt -3.586181 9.412913
vt 0.9911224 9.03486
vt 0.9911224 10.07705
vt 3.719152 9.412913
vt 3.719152 9.698996
vt -4.231333E-07 0.4050551
vt 0.9999993 0.4050551
vt 0.3627486 -2.325051
vt 0.6372502 -2.325051

vn 0 2.54823E-08 0.08115389
vn -0.08115389 6.424647E-09 0
vn 0 -2.248627E-08 -0.08115389
vn 0.08115389 -3.800714E-09 0
vn 0 0.08115389 0
vn 0 -0.08115389 0
vn 0 -0.08028439 0.01184782
vn 0.08035234 0 0.01137785
vn -0.08035234 0 0.01137785
vn 0 0.08028439 0.0118478
vn 0 -0.08037204 -0.01123785
vn -0.08043324 0 -0.01079112
vn 0.08043324 0 -0.01079112
vn 0 0.08037205 -0.01123782

usemtl Prototype_512x512_Grey2
f 11/10/5 12/11/5 10/9/5 9/1/5
f 15/15/1 16/16/1 14/14/1 13/13/1
f 11/17/4 9/18/4 3/3/4 8/8/4
f 10/18/2 12/19/2 6/5/2 4/3/2
f 19/22/3 20/23/3 18/21/3 17/20/3
f 13/26/7 14/27/7 4/25/7 3/24/7
f 15/28/8 13/29/8 3/3/8 9/18/8
f 14/32/9 16/33/9 10/31/9 4/30/9
f 16/36/10 15/37/10 9/35/10 10/34/10
f 17/40/11 18/41/11 8/39/11 6/38/11
f 19/44/12 17/45/12 6/43/12 12/42/12
f 18/48/13 20/49/13 11/47/13 8/46/13
f 20/52/14 19/53/14 12/51/14 11/50/14

usemtl Prototype_512x512_Brown
f 3/3/1 4/4/1 2/2/1 1/1/1
f 4/3/2 6/5/2 5/2/2 2/1/2
f 6/7/3 8/3/3 7/1/3 5/6/3
f 8/8/4 3/3/4 1/1/4 7/6/4
f 1/1/6 2/2/6 5/12/6 7/10/6

